<?xml version="1.0" encoding="utf-8"?>
<!-- Generator: Adobe Illustrator 27.5.0, SVG Export Plug-In . SVG Version: 6.00 Build 0)  -->
<svg version="1.1" id="Layer_1" xmlns="http://www.w3.org/2000/svg" xmlns:xlink="http://www.w3.org/1999/xlink" x="0px" y="0px"
	 viewBox="0 0 1000 1000" style="enable-background:new 0 0 1000 1000;" xml:space="preserve">
<style type="text/css">
	.st0{fill:none;}
</style>
<g id="Logo_6">
</g>
<g id="Logo_5">
</g>
<g id="Logo_4">
	<g>
		<g>
			<path d="M16.6,738.7l51.6-249.7c19.4-94.2,29.1-177.6,29.1-250.2c0-5.2-0.1-9.5-0.2-12.8c-0.2-3.3-0.2-7-0.2-11.1l-0.4-10.4
				l47.7-21.7v7.4c0,19.9-0.7,41.3-2.2,64.2c-2.6,39.3-6.5,80.4-11.7,123.1l-1.7,12.1c13-36.1,32.9-73.5,59.8-112.3
				c17.1-24.6,35.1-46.3,54.2-65.3c19.1-18.9,37.6-33.1,55.7-42.5c18.1-9.4,35.2-14.1,51.4-14.1c22.8,0,40.9,8.2,54.2,24.7
				c13.3,16.5,19.9,38.7,19.9,66.8c0,38.7-11.5,78.9-34.5,120.5s-53.6,78.2-91.9,109.7c-38.3,31.5-79,53.5-122,65.9
				c13.9,24,28.8,46.4,44.9,67.2s33.2,40.6,51.4,59.4c18.2,18.8,37,35.7,56.4,50.7l-31.6,30.8c-23.1-17.9-46.6-40-70.4-66.1
				c-23.8-26.2-44.7-52.6-62.4-79.3c-17.8-26.7-30.4-50.9-37.9-72.6c2.3,0.3,4.9,0.4,7.8,0.4c27.2,0,56-8,86.5-23.8
				c30.5-15.9,57.6-37.3,81.3-64.2c23.1-26.3,41.8-57.4,56.1-93.2c14.3-35.8,21.5-69.2,21.5-100.2c0-21.4-4.5-38.1-13.4-50.3
				c-9-12.1-21.2-18.2-36.9-18.2c-15,0-31,5.3-47.9,15.8c-16.9,10.6-33.7,25.1-50.3,43.8c-16.6,18.6-33.3,41.8-50.1,69.6
				c-18.5,31.5-33.7,63.6-45.5,96.2c-11.8,32.7-22.7,72-32.5,117.9L57.4,738.7H16.6z"/>
		</g>
		<g>
			<path d="M546.6,713.9c-0.6,0.2-0.9,0.4-0.9,0.6l-2.4,1.2c-27.3,14.2-56.3,21.2-86.9,21.2c-24.2,0-45.6-4.3-64.4-13
				c-18.8-8.6-33.2-20.9-43.3-36.8c-10.1-15.9-15.2-34.4-15.2-55.4c0-47.7,31.6-89.6,94.9-125.5l2.1-1.2v-1.2v-0.6
				c0-21.2,3.2-42,9.7-62.3c6.5-20.3,15-37,25.6-50c19.2-23.4,40.4-35.1,63.4-35.1c12.4,0,22.4,3.6,30.2,10.8
				c7.8,7.2,11.6,16.1,11.6,26.7c0,23.8-17.8,47.1-53.3,69.8c-5.9,3.9-16.9,10.4-33,19.5c-17.5,9.6-29,15.8-34.5,18.6
				c0.8,17.7,5.4,37.9,13.7,60.7c8.4,22.8,18.5,42.9,30.5,60.4c18.3,26.7,41.3,50.2,69,70.4c13.8-9.8,26-21.3,36.8-34.3
				c10.8-13.1,19.3-26.5,25.5-40.4s9.3-26.9,9.3-39c0-12.6-3.3-22.7-9.9-30.5c-6.6-7.8-15.1-11.6-25.5-11.6
				c-27.5,0-47.9,24.1-61.3,72.2l-15.3-22.7c3.7-12.8,9.3-24.2,16.7-34.2s15.9-17.8,25.6-23.3c9.7-5.5,19.8-8.2,30.2-8.2
				c9.4,0,18,2.4,25.6,7.1c7.7,4.7,13.7,11.3,18.1,19.8s6.6,17.8,6.6,28c0,10-1.9,20.5-5.6,31.4c-3.7,10.9-8.8,21.7-15.3,32.3
				c-6.5,10.6-14.6,21.2-24.3,31.8c-9.7,10.6-19.6,19.5-29.6,26.8l1.5,0.9c20,12.6,40.3,18.9,60.7,18.9c15.7,0,29.1-3,40.2-9.1
				c11.1-6.1,22.3-16.4,33.7-30.9l4.1,4.7c-23.4,35.6-53.8,53.3-91.4,53.3C594.9,735.4,570.4,728.2,546.6,713.9z M537.5,708.3
				c-30.1-19.6-54.6-46.6-73.7-80.9c-19.1-34.3-30.1-71.6-33-111.8l-0.3-1.5c-44,28.1-66,62.3-66,102.6c0,30.1,10.5,55.1,31.5,75
				s47.4,29.9,79,29.9C496.8,721.5,517.7,717.1,537.5,708.3z M450.3,492.8c28.1-14.9,49.3-28,63.7-39.2c10.8-8,19.5-17.5,25.9-28.4
				c6.5-10.9,9.7-21.3,9.7-31.1c0-8.5-2.6-15-7.8-19.8c-5.2-4.7-12.1-7.1-20.8-7.1c-12.6,0-24.3,5.2-35.2,15.5
				c-10.9,10.3-19.6,24.2-26.1,41.5c-6.5,17.4-9.7,36-9.7,55.9v7.7L450.3,492.8z"/>
		</g>
		<g>
			<path d="M849.9,454.9l-31.2,26c-9.2-14.2-15.8-28.5-19.7-42.9c-3.9-14.5-5.8-32.2-5.8-53.3c0-50.9,13.4-103.5,40.3-157.8
				c11.6-23.7,24.6-42.1,39-55.1c14.5-13,28.5-19.5,42-19.5c17.9,0,31.4,10.5,40.3,31.4c9,21,13.4,51.7,13.4,92.1
				c0,36.1-4.8,77.3-14.3,123.6c-9.5,46.2-22.4,90.5-38.6,132.7c16.5-2,29.2-3,38.2-3c2.3,0,4.5,0.2,6.5,0.4l-2.6,12.6
				c-14.7,0-30.3,1.2-46.8,3.5c-23.4,58.7-51.7,113-85,163c-33.2,50-67.1,89-101.7,117c-34.5,28-66.1,42-94.7,42
				c-20.2,0-36.1-6.1-47.7-18.2c-11.6-12.1-17.3-28.8-17.3-49.9c0-16.2,4.3-33.9,13-53.1c8.7-19.2,20.8-38.4,36.4-57.7
				c15.6-19.2,33.8-37.1,54.6-53.5c18.8-15.3,38.4-28.8,59-40.5c20.5-11.7,42.5-22.1,66.1-31.2c23.5-9.1,48.3-17,74.3-23.6l3-8.2
				c24.3-73.4,41-138.7,50.3-196c6.1-40.2,9.1-72.8,9.1-98c0-20.5-2.5-36.5-7.4-47.9c-4.9-11.4-11.7-17.1-20.4-17.1
				c-12.4,0-25,8.9-37.7,26.7s-23.1,40.5-31.2,68.1c-8.1,27.6-12.1,54.7-12.1,81.3C821.3,391.5,830.9,426.9,849.9,454.9z
				 M861.2,555.1c-34.4,8.4-67.6,20.7-99.5,36.8c-31.9,16.2-59.5,34.5-82.6,55.1c-26.6,24-47.6,49.9-63.1,77.8s-23.2,54-23.2,78.2
				c0,15.3,3.9,27.9,11.7,37.7c7.8,9.8,17.8,14.7,29.9,14.7c37,0,79-32.4,126.2-97.1c11.3-15,22.9-33.7,34.9-56.1
				c12-22.4,25.7-50.8,41-85.2C845.2,597.1,853.4,576.5,861.2,555.1z"/>
		</g>
	</g>
	<rect x="1234.6" y="1292.7" class="st0" width="3.4" height="1.3"/>
</g>
<g id="Logo_3">
</g>
<g id="Logo_2">
</g>
<g id="Logo_1">
</g>
<g id="ORjlwt.tif">
	
		<image style="overflow:visible;" width="793" height="886" id="Layer_0" xlink:href="BA7B52827CBA401A.png"  transform="matrix(0.1709 0 0 0.1709 382.2149 801.5096)">
	</image>
</g>
</svg>
