<?xml version="1.0" encoding="utf-8"?>
<!-- Generator: Adobe Illustrator 27.5.0, SVG Export Plug-In . SVG Version: 6.00 Build 0)  -->
<svg version="1.2" baseProfile="tiny" id="Layer_1" xmlns="http://www.w3.org/2000/svg" xmlns:xlink="http://www.w3.org/1999/xlink"
	 x="0px" y="0px" viewBox="0 0 1000 1000" overflow="visible" xml:space="preserve">
<g id="Logo_6">
</g>
<g id="Logo_5">
</g>
<g id="Logo_4">
	<g>
		<g>
			<path d="M16.63,738.65l51.59-249.71c19.36-94.22,29.05-177.6,29.05-250.15c0-5.2-0.07-9.46-0.22-12.79
				c-0.15-3.32-0.22-7-0.22-11.06l-0.43-10.4l47.69-21.68v7.37c0,19.94-0.73,41.33-2.17,64.16c-2.6,39.31-6.5,80.35-11.71,123.12
				l-1.73,12.14c13.01-36.12,32.95-73.55,59.83-112.29c17.05-24.56,35.12-46.31,54.19-65.25c19.08-18.93,37.64-33.09,55.71-42.49
				c18.06-9.39,35.18-14.09,51.37-14.09c22.83,0,40.89,8.24,54.19,24.71c13.29,16.47,19.94,38.73,19.94,66.76
				c0,38.73-11.49,78.9-34.47,120.52c-22.98,41.62-53.62,78.19-91.91,109.68c-38.3,31.51-78.98,53.47-122.04,65.9
				c13.87,23.99,28.83,46.39,44.87,67.2c16.04,20.81,33.17,40.61,51.37,59.39c18.21,18.79,36.99,35.7,56.36,50.72l-31.65,30.78
				c-23.13-17.92-46.6-39.95-70.45-66.11c-23.84-26.15-44.65-52.6-62.43-79.34c-17.77-26.73-30.42-50.94-37.93-72.62
				c2.31,0.29,4.91,0.43,7.8,0.43c27.16,0,55.99-7.95,86.49-23.84c30.49-15.89,57.58-37.28,81.29-64.16
				c23.12-26.3,41.84-57.37,56.14-93.21c14.31-35.83,21.46-69.22,21.46-100.15c0-21.39-4.48-38.15-13.44-50.29
				c-8.96-12.14-21.24-18.21-36.85-18.21c-15.03,0-31,5.28-47.91,15.82c-16.91,10.55-33.67,25.14-50.29,43.79
				c-16.62,18.64-33.31,41.84-50.07,69.58c-18.5,31.51-33.67,63.59-45.52,96.24c-11.85,32.67-22.69,71.97-32.51,117.92L57.39,738.65
				H16.63z"/>
		</g>
		<g>
			<path d="M546.64,713.87c-0.59,0.2-0.88,0.4-0.88,0.59l-2.36,1.18c-27.31,14.15-56.29,21.22-86.94,21.22
				c-24.17,0-45.63-4.32-64.39-12.97c-18.76-8.64-33.2-20.92-43.32-36.84c-10.12-15.91-15.18-34.38-15.18-55.4
				c0-47.74,31.63-89.59,94.89-125.54l2.06-1.18v-1.18v-0.59c0-21.22,3.24-42,9.73-62.33c6.48-20.33,15.03-36.98,25.64-49.95
				c19.25-23.38,40.37-35.07,63.36-35.07c12.38,0,22.44,3.59,30.21,10.76c7.76,7.17,11.64,16.06,11.64,26.67
				c0,23.77-17.78,47.06-53.34,69.84c-5.89,3.93-16.9,10.42-33.01,19.45c-17.49,9.63-28.98,15.82-34.48,18.57
				c0.78,17.68,5.35,37.92,13.7,60.71c8.35,22.79,18.52,42.93,30.5,60.41c18.27,26.72,41.26,50.2,68.96,70.43
				c13.75-9.82,26.03-21.26,36.84-34.33c10.8-13.06,19.3-26.52,25.49-40.37s9.28-26.86,9.28-39.05c0-12.57-3.29-22.74-9.87-30.5
				c-6.59-7.76-15.08-11.64-25.49-11.64c-27.51,0-47.94,24.07-61.3,72.2l-15.32-22.69c3.73-12.77,9.28-24.17,16.65-34.19
				c7.37-10.02,15.91-17.78,25.64-23.28c9.73-5.5,19.79-8.25,30.21-8.25c9.43,0,17.98,2.36,25.64,7.07
				c7.66,4.71,13.7,11.3,18.12,19.75c4.42,8.45,6.63,17.78,6.63,28c0,10.02-1.87,20.48-5.6,31.39c-3.73,10.9-8.84,21.66-15.32,32.27
				c-6.48,10.61-14.59,21.22-24.31,31.83c-9.72,10.61-19.6,19.55-29.62,26.82l1.47,0.88c20.04,12.58,40.27,18.86,60.71,18.86
				c15.72,0,29.12-3.04,40.23-9.14c11.1-6.09,22.35-16.4,33.74-30.94l4.12,4.71c-23.38,35.56-53.83,53.34-91.36,53.34
				C594.87,735.38,570.41,728.21,546.64,713.87z M537.5,708.27c-30.06-19.64-54.62-46.61-73.68-80.9
				c-19.06-34.28-30.06-71.56-33.01-111.84l-0.29-1.47c-44.01,28.1-66.01,62.28-66.01,102.56c0,30.06,10.51,55.06,31.53,75
				c21.02,19.94,47.35,29.91,78.98,29.91C496.83,721.53,517.65,717.11,537.5,708.27z M450.27,492.84
				c28.09-14.93,49.31-28,63.66-39.2c10.8-8.05,19.45-17.53,25.93-28.44c6.48-10.9,9.72-21.26,9.72-31.09
				c0-8.45-2.61-15.03-7.81-19.75c-5.21-4.72-12.13-7.07-20.78-7.07c-12.58,0-24.31,5.16-35.22,15.47
				c-10.9,10.31-19.6,24.17-26.08,41.55c-6.48,17.39-9.73,36-9.73,55.85v7.66L450.27,492.84z"/>
		</g>
		<g>
			<path d="M849.94,454.94l-31.21,26.01c-9.25-14.16-15.82-28.46-19.73-42.92c-3.9-14.45-5.85-32.22-5.85-53.32
				c0-50.87,13.44-103.47,40.32-157.81c11.56-23.7,24.56-42.05,39.02-55.06c14.45-13.01,28.46-19.51,42.05-19.51
				c17.92,0,31.36,10.48,40.32,31.43c8.96,20.96,13.44,51.66,13.44,92.13c0,36.13-4.77,77.32-14.31,123.56
				c-9.54,46.25-22.4,90.47-38.58,132.66c16.47-2.02,29.19-3.03,38.15-3.03c2.31,0,4.48,0.15,6.5,0.43l-2.6,12.57
				c-14.74,0-30.35,1.16-46.82,3.47c-23.41,58.68-51.74,113.01-84.97,163.01c-33.24,50-67.13,89.02-101.66,117.05
				c-34.54,28.03-66.11,42.05-94.73,42.05c-20.23,0-36.12-6.07-47.69-18.21c-11.56-12.14-17.34-28.76-17.34-49.86
				c0-16.19,4.33-33.89,13.01-53.11c8.67-19.22,20.81-38.43,36.42-57.66c15.61-19.22,33.82-37.07,54.62-53.54
				c18.79-15.32,38.44-28.83,58.96-40.54c20.52-11.71,42.55-22.11,66.11-31.21c23.55-9.1,48.34-16.98,74.35-23.63l3.04-8.24
				c24.28-73.41,41.04-138.73,50.29-195.96c6.07-40.17,9.1-72.83,9.1-97.98c0-20.52-2.46-36.48-7.37-47.91
				c-4.92-11.41-11.71-17.12-20.38-17.12c-12.43,0-25,8.89-37.72,26.66c-12.72,17.77-23.13,40.47-31.21,68.06
				c-8.09,27.6-12.14,54.7-12.14,81.29C821.32,391.51,830.86,426.91,849.94,454.94z M861.21,555.09
				c-34.4,8.39-67.56,20.67-99.5,36.85c-31.94,16.19-59.47,34.54-82.59,55.06c-26.59,23.99-47.62,49.93-63.08,77.82
				c-15.46,27.89-23.19,53.97-23.19,78.25c0,15.32,3.9,27.89,11.71,37.72c7.8,9.82,17.78,14.74,29.91,14.74
				c36.99,0,79.04-32.37,126.16-97.11c11.27-15.03,22.9-33.74,34.9-56.14c11.99-22.39,25.65-50.79,40.97-85.19
				C845.17,597.14,853.41,576.48,861.21,555.09z"/>
		</g>
	</g>
	<rect x="1234.57" y="1292.71" fill="none" width="3.43" height="1.29"/>
</g>
<g id="Logo_3">
</g>
<g id="Logo_2">
</g>
<g id="Logo_1">
</g>
</svg>
