<?xml version="1.0" encoding="UTF-8" standalone="no"?>
<svg
   xmlns:dc="http://purl.org/dc/elements/1.1/"
   xmlns:cc="http://creativecommons.org/ns#"
   xmlns:rdf="http://www.w3.org/1999/02/22-rdf-syntax-ns#"
   xmlns:svg="http://www.w3.org/2000/svg"
   xmlns="http://www.w3.org/2000/svg"
   xmlns:sodipodi="http://sodipodi.sourceforge.net/DTD/sodipodi-0.dtd"
   xmlns:inkscape="http://www.inkscape.org/namespaces/inkscape"
   stroke-miterlimit="10"
   font-weight="normal"
   font-style="normal"
   font-size="12"
   version="1.1"
   id="svg4021"
   sodipodi:docname="rounded_symbol_for_shuangxi_U+1F264.svg"
   width="265.5"
   height="258.89059"
   style="font-style:normal;font-weight:normal;font-size:12px;font-family:Dialog;color-interpolation:auto;fill:#000000;fill-opacity:1;stroke:#000000;stroke-width:1;stroke-linecap:square;stroke-linejoin:miter;stroke-miterlimit:10;stroke-dasharray:none;stroke-dashoffset:0;stroke-opacity:1;color-rendering:auto;image-rendering:auto;shape-rendering:auto;text-rendering:auto"
   inkscape:version="0.92.3 (2405546, 2018-03-11)">
  <metadata
     id="metadata4025">
    <rdf:RDF>
      <cc:Work
         rdf:about="">
        <dc:format>image/svg+xml</dc:format>
        <dc:type
           rdf:resource="http://purl.org/dc/dcmitype/StillImage" />
        <dc:title></dc:title>
      </cc:Work>
    </rdf:RDF>
  </metadata>
  <sodipodi:namedview
     pagecolor="#ffffff"
     bordercolor="#666666"
     borderopacity="1"
     objecttolerance="10"
     gridtolerance="10"
     guidetolerance="10"
     inkscape:pageopacity="0"
     inkscape:pageshadow="2"
     inkscape:window-width="1280"
     inkscape:window-height="717"
     id="namedview4023"
     showgrid="false"
     fit-margin-top="0"
     fit-margin-left="0"
     fit-margin-right="0"
     fit-margin-bottom="0"
     inkscape:zoom="1.9467682"
     inkscape:cx="132.75"
     inkscape:cy="129.4453"
     inkscape:window-x="0"
     inkscape:window-y="27"
     inkscape:window-maximized="1"
     inkscape:current-layer="svg4021" />
  <!--Unicode Character 'ROUNDED SYMBOL FOR SHUANGXI' (U+1F264)-->
  <defs
     id="genericDefs" />
  <g
     id="g4019"
     transform="translate(-11.25,-156.5156)">
    <g
       id="g4017">
      <path
         fill="#752121" d="M 261.9844,223.7344 H 26.0156 q 4.6406,-8.8594 10.4063,-16.875 H 88.3125 V 189.7031 H 51.0469 q 9.4219,-9.2812 20.6719,-16.875 h 16.5937 v -9.5625 q 8.2969,-3.9375 16.875,-6.75 v 16.3125 h 77.625 v -16.3125 q 8.5781,2.8125 16.875,6.75 v 9.5625 h 16.5937 q 11.25,7.5938 20.6719,16.875 h -37.2656 v 17.1563 h 51.8906 q 5.7657,8.0156 10.4063,16.875 z m 14.7656,59.4844 q 0,7.1718 -0.8438,14.625 h -76.2187 v 18.7031 H 272.25 q -2.25,8.4375 -5.9062,16.875 h -66.6563 v 18.7031 h 57.375 q -16.3125,26.2969 -42.4687,43.0312 -26.8594,17.1563 -57.9376,20.25 V 352.125 h 26.1563 v -18.7031 h -77.625 v 18.7031 h 26.1563 v 63.2812 Q 100.2656,412.3125 73.4062,395.1562 47.25,378.4219 30.9375,352.125 h 57.375 V 333.4219 H 21.6562 Q 18,324.9844 15.75,316.5469 H 88.3125 V 297.8438 H 12.0938 q -0.8438,-7.4532 -0.8438,-14.625 0,-20.6719 6.3281,-40.0782 h 113.7657 v 54.7032 h -26.1563 v 18.7031 h 77.625 v -18.7031 h -26.1563 v -54.7032 h 113.7657 q 6.3281,19.4063 6.3281,40.0782 z m -16.875,-2.25 q -0.1406,-10.5469 -2.3906,-20.9532 h -83.9532 v 20.9532 z m -77.0625,-74.1094 v -17.1563 h -77.625 v 17.1563 z M 221.2031,369 h -47.6719 v 26.1562 Q 200.25,387.8438 221.2031,369 Z M 114.4688,280.9688 V 260.0156 H 30.5156 q -2.25,10.4063 -2.3906,20.9532 z m 0,114.1874 V 369 H 66.7969 q 20.9531,18.8438 47.6719,26.1562 z"
         id="path4015"
         inkscape:connector-curvature="0"
         style="stroke:none" />
    </g>
  </g>
</svg>
